<?xml version="1.0" encoding="iso-8859-1"?>
<!-- Generator: Adobe Illustrator 16.0.0, SVG Export Plug-In . SVG Version: 6.00 Build 0)  -->
<!DOCTYPE svg PUBLIC "-//W3C//DTD SVG 1.1//EN" "http://www.w3.org/Graphics/SVG/1.1/DTD/svg11.dtd">
<svg version="1.1" id="Capa_1" xmlns="http://www.w3.org/2000/svg" xmlns:xlink="http://www.w3.org/1999/xlink" x="0px" y="0px"
	 width="427.484px" height="427.484px" viewBox="0 0 427.484 427.484" style="enable-background:new 0 0 427.484 427.484;"
	 xml:space="preserve">
<g>
	<path d="M405.943,290.254L302.096,425.338c-1.04,1.354-2.66,2.146-4.374,2.146c-1.702,0-3.321-0.798-4.368-2.146L189.511,290.254
		c-0.769-0.993-1.144-2.176-1.144-3.357c0-1.152,0.364-2.329,1.108-3.322c1.499-1.975,4.125-2.707,6.434-1.809l68.76,27.166V21.01
		c0-3.047,2.477-5.503,5.515-5.503h55.106c3.038,0,5.509,2.456,5.509,5.503v287.922l68.76-27.166
		c2.305-0.898,4.93-0.166,6.419,1.809C407.473,285.561,407.461,288.28,405.943,290.254z M238.012,143.913
		c0.744-0.993,1.105-2.167,1.105-3.322c0-1.176-0.379-2.367-1.142-3.36L134.125,2.148C133.081,0.792,131.458,0,129.759,0
		c-1.714,0-3.328,0.798-4.377,2.148L21.539,137.23c-1.519,1.969-1.525,4.69-0.03,6.683c1.487,1.968,4.114,2.707,6.419,1.803
		l68.766-27.163v287.919c0,3.05,2.462,5.509,5.506,5.509h55.109c3.041,0,5.515-2.459,5.515-5.509V118.552l68.763,27.163
		C233.886,146.62,236.51,145.88,238.012,143.913z"/>
</g>
<g>
</g>
<g>
</g>
<g>
</g>
<g>
</g>
<g>
</g>
<g>
</g>
<g>
</g>
<g>
</g>
<g>
</g>
<g>
</g>
<g>
</g>
<g>
</g>
<g>
</g>
<g>
</g>
<g>
</g>
</svg>
